<?xml version="1.0"?>
<svg xmlns="http://www.w3.org/2000/svg" xmlns:xlink="http://www.w3.org/1999/xlink" xmlns:svgjs="http://svgjs.com/svgjs" version="1.1" width="512" height="512" x="0" y="0" viewBox="0 0 512.001 512.001" style="enable-background:new 0 0 512 512" xml:space="preserve"><g>
<g xmlns="http://www.w3.org/2000/svg">
	<g>
		<path d="M432.359,497h-18.01c-14.869-29.372-45.028-48.098-78.186-48.098c-3.206,0-6.564,0.221-10.189,0.672    c-3.145-2.533-6.436-4.906-9.816-7.077c-3.484-2.238-8.125-1.228-10.363,2.258c-2.238,3.485-1.228,8.125,2.258,10.363    c3.762,2.416,7.396,5.121,10.8,8.039c1.665,1.426,3.867,2.051,6.037,1.715c4.185-0.653,7.872-0.97,11.274-0.97    c24.838,0,47.644,12.682,60.906,33.098H114.931c13.261-20.416,36.068-33.098,60.906-33.098c3.402,0,7.089,0.317,11.274,0.97    c2.167,0.339,4.372-0.289,6.037-1.715c17.533-15.027,39.855-23.304,62.852-23.304c8.55,0,17.031,1.123,25.206,3.336    c3.999,1.082,8.117-1.281,9.2-5.279c1.083-3.998-1.281-8.117-5.279-9.2c-7.053-1.91-14.299-3.115-21.626-3.605V242.506    c0-15.119,5.886-29.336,16.573-40.03l12.261-12.269c4.018,0.672,8.08,1.004,12.146,1.004c20.691,0,41.467-8.543,56.913-23.99    c19.537-19.536,28.028-47.595,22.163-73.228c-0.642-2.805-2.833-4.996-5.638-5.638c-25.631-5.867-53.69,2.626-73.228,22.163    c-18.49,18.491-27.079,44.615-22.973,69.092l-12.255,12.263c-2.149,2.15-4.126,4.425-5.962,6.787v-62.911    c0-23.328-9.054-45.26-25.494-61.796c3.428-19.475-3.337-40.317-18.044-55.025C204.543,3.509,182.38-3.191,162.117,1.445    c-2.806,0.642-4.996,2.833-5.638,5.638c-4.636,20.261,2.062,42.425,17.482,57.846c12.189,12.189,28.59,18.929,44.935,18.929    c2.451,0,4.899-0.169,7.333-0.477l0.987,0.987c13.724,13.724,21.283,31.971,21.283,51.38v106.758v48.899    c-4.274-7.018-9.412-13.578-15.371-19.536l-8.628-8.628c6.598-35.499-5.671-73.692-32.593-100.614    c-27.967-27.967-68.099-40.131-104.737-31.748c-2.806,0.642-4.996,2.833-5.638,5.638c-8.384,36.637,3.781,76.77,31.748,104.737    c22.121,22.121,51.852,34.356,81.445,34.356c6.422,0,12.837-0.587,19.168-1.763l8.629,8.629    c16.752,16.752,25.979,39.026,25.979,62.718v79.939c-22.759,1.544-44.602,10.051-62.474,24.442    c-3.625-0.451-6.983-0.672-10.189-0.672c-33.158,0-63.317,18.726-78.186,48.098h-18.01c-4.142,0-7.5,3.358-7.5,7.5    c0,4.142,3.358,7.5,7.5,7.5h352.72c4.142,0,7.5-3.358,7.5-7.5C439.861,500.359,436.502,497,432.359,497z M315.296,121.124    c14.703-14.703,35.199-21.758,54.516-19.026c2.731,19.313-4.323,39.814-19.026,54.516c-12.164,12.163-28.296,19.084-44.439,19.57    l19.088-19.101c2.928-2.93,2.926-7.679-0.003-10.607c-2.931-2.928-7.678-2.927-10.607,0.003l-19.097,19.111    C296.205,149.437,303.127,133.294,315.296,121.124z M201.75,37.687c-2.929-2.929-7.678-2.929-10.606,0    c-2.929,2.929-2.929,7.678,0,10.606l19.878,19.878c-9.709-1.688-19.066-6.461-26.454-13.849    c-10.569-10.57-15.812-25.165-14.28-39.067c13.9-1.531,28.498,3.71,39.068,14.28c8.305,8.306,13.303,19.098,14.327,30.085    L201.75,37.687z M211.076,249.817l-46.597-46.597c-2.929-2.929-7.678-2.929-10.606,0c-2.929,2.929-2.929,7.678,0,10.606    l46.598,46.598c-27.509,1.748-55.837-9.028-76.585-29.778c-23.149-23.15-33.895-55.734-28.673-86.086    c30.355-5.223,62.938,5.524,86.086,28.673C202.048,193.981,212.822,222.309,211.076,249.817z" fill="#575757" data-original="#000000" style=""/>
	</g>
</g>
<g xmlns="http://www.w3.org/2000/svg">
</g>
<g xmlns="http://www.w3.org/2000/svg">
</g>
<g xmlns="http://www.w3.org/2000/svg">
</g>
<g xmlns="http://www.w3.org/2000/svg">
</g>
<g xmlns="http://www.w3.org/2000/svg">
</g>
<g xmlns="http://www.w3.org/2000/svg">
</g>
<g xmlns="http://www.w3.org/2000/svg">
</g>
<g xmlns="http://www.w3.org/2000/svg">
</g>
<g xmlns="http://www.w3.org/2000/svg">
</g>
<g xmlns="http://www.w3.org/2000/svg">
</g>
<g xmlns="http://www.w3.org/2000/svg">
</g>
<g xmlns="http://www.w3.org/2000/svg">
</g>
<g xmlns="http://www.w3.org/2000/svg">
</g>
<g xmlns="http://www.w3.org/2000/svg">
</g>
<g xmlns="http://www.w3.org/2000/svg">
</g>
</g></svg>
