<?xml version="1.0"?>
<svg xmlns="http://www.w3.org/2000/svg" xmlns:xlink="http://www.w3.org/1999/xlink" xmlns:svgjs="http://svgjs.com/svgjs" version="1.1" width="512" height="512" x="0" y="0" viewBox="0 0 511.955 511.955" style="enable-background:new 0 0 512 512" xml:space="preserve" class=""><g><g xmlns="http://www.w3.org/2000/svg"><path d="m197.233 65.795c-35.382-44.219-93.556-61.73-149.373-65.673-10.113-1.28-18.577 7.723-16.6 17.776 15.089 76.729 31.177 122.284 52.164 147.708 32.584 39.473 70.285 26.938 116.366 42.809 34.484 52.842 37.895 96.271 40.545 155.212-18.283 3.949-34.566 14.694-45.444 30.041-25.693-6.401-52.843 5.52-66.002 28.845-21.458 3.409-37.911 22.041-37.911 44.442 0 24.813 20.187 45 45 45h240c24.813 0 45-20.187 45-45 0-22.402-16.453-41.033-37.911-44.442-13.17-23.343-40.33-35.241-66.002-28.845-10.878-15.347-27.161-26.091-45.444-30.041 2.687-59.774 6.156-102.515 40.545-155.212 46.082-15.871 83.799-3.356 116.366-42.809 20.987-25.424 37.075-70.979 52.164-147.708 1.971-10.022-6.455-19.058-16.599-17.776-56.221 3.972-114.142 21.641-149.374 65.673-26.308 32.88-35.919 75.845-28.598 127.768-12.818 19.97-23.026 41.052-30.147 63.982-7.122-22.933-17.332-44.014-30.147-63.982 7.321-51.923-2.29-94.888-28.598-127.768zm140.915 18.743c28.959-36.193 77.845-48.498 109.05-52.665-12.677 58.927-26.085 95.596-41.802 114.636-16.424 19.897-34.822 19.741-64.369 24.344 10.507-11.908 22.669-24.267 36.763-37.183 6.107-5.597 6.521-15.085.924-21.193-5.597-6.107-15.085-6.521-21.193-.924-16.589 15.203-31.084 30.083-43.677 44.878.826-28.614 8.948-52.702 24.304-71.893zm-41.332 333.816c3.559 7.791 12.918 11.024 20.528 7.093 17.336-8.957 36.04.477 41.746 16.532 4.063 11.43 16.647 9.911 16.888 9.976 8.271 0 15 6.729 15 15s-6.729 15-15 15h-240c-8.271 0-15-6.729-15-15s6.729-15 15-15c.549-.148 12.748 1.671 16.888-9.976 5.664-15.936 24.293-25.549 41.746-16.532 7.61 3.93 16.97.697 20.528-7.093 7.325-16.031 23.346-26.392 40.821-26.399h.004.013s.009 0 .013 0h.004c17.475.007 33.496 10.368 40.821 26.399zm-190.256-271.845c-15.717-19.04-29.125-55.709-41.802-114.636 31.205 4.168 80.091 16.472 109.05 52.665 15.356 19.191 23.478 43.279 24.304 71.892-12.593-14.795-27.088-29.675-43.677-44.878-6.107-5.597-15.596-5.183-21.193.924-5.597 6.108-5.184 15.596.924 21.193 14.094 12.916 26.257 25.275 36.763 37.183-29.606-4.612-47.974-4.481-64.369-24.343z" fill="#575757" data-original="#000000" style="" class=""/></g></g></svg>
